<?xml version="1.0" encoding="utf-8" ?><svg xmlns="http://www.w3.org/2000/svg" xmlns:xlink="http://www.w3.org/1999/xlink" width="282" height="292" viewBox="153 26 282 292"><path fill="#004CC5" transform="matrix(0.444196 0 0 0.44401 -0.00012207 0)" d="M651.414 82.3332C659.629 81.4182 673.22 82.4669 681.688 83.0786C722.441 86.0225 761.532 97.5563 797.473 117.142C864.923 153.718 914.903 215.809 936.234 289.527C956.662 359.552 950.13 434.691 917.924 500.138C912.357 511.431 905.56 523.222 898.509 533.674C895.069 538.772 891.505 543.459 888.531 548.873C895.931 565.53 947.289 680.679 947.811 690.798L946.912 691.714C941.854 693.817 908.165 678.543 901.659 675.876L829.623 646.432C817.493 641.467 804.18 635.351 792.006 631.119C786.202 632.995 778.862 636.677 773.188 639.322C748.182 650.729 710.442 659.436 683.557 661.383C607.177 666.914 535.445 641.818 477.673 591.824C419.385 541.34 383.377 469.882 377.478 392.986C365.926 227.118 486.697 93.768 651.414 82.3332Z"/><path fill="white" transform="matrix(0.444196 0 0 0.44401 -0.00012207 0)" d="M650.148 201.775C651.082 201.65 652.021 201.565 652.962 201.521C689.61 199.603 725.472 212.622 752.36 237.604C809.428 290.569 814.453 379.047 764.05 438.15C750.345 453.813 739.541 466.401 732.548 486.494C719.9 522.839 740.303 574.947 698.113 595.87C688.961 600.409 680.797 601.744 671.056 602.032C649.607 602.161 630.528 604.455 612.533 590.17C584.135 567.625 596.333 526.803 588.675 494.775C581.597 465.178 569.02 457.057 552.239 435.369C535.575 413.871 525.165 388.192 522.154 361.157C517.833 322.822 528.996 284.347 553.161 254.28C577.082 224.404 612.06 205.468 650.148 201.775Z"/><defs><linearGradient id="gradient_0" gradientUnits="userSpaceOnUse" x1="646.48157" y1="486.75693" x2="699.22827" y2="228.43202"><stop offset="0" stop-color="#FFAB04"/><stop offset="1" stop-color="#FDCE03"/></linearGradient></defs><path fill="url(#gradient_0)" transform="matrix(0.444196 0 0 0.44401 -0.00012207 0)" d="M597.631 244.253C617.487 228.073 648.514 220.161 674.047 222.765C741.241 229.634 782.396 294.623 775.65 358.829C773.181 382.329 761.405 408.741 746.239 426.679C726.89 449.562 710.689 465.969 706.413 497.408C695.712 497.275 678.542 497.886 668.674 497.05C663.697 497.506 653.916 497.211 648.804 497.176L612.435 496.929C605.148 456.66 586.543 450.514 565.624 419.063C546.824 390.798 539.635 354.241 547.096 320.977C553.688 291.589 571.704 260.705 597.631 244.253Z"/><path fill="#FD9102" transform="matrix(0.444196 0 0 0.44401 -0.00012207 0)" d="M612.435 496.929C605.148 456.66 586.543 450.514 565.624 419.063C546.824 390.798 539.635 354.241 547.096 320.977C553.688 291.589 571.704 260.705 597.631 244.253L597.451 244.811C595.084 251.966 590.699 257.708 588.795 265.889C582.848 291.436 593.26 325.32 604.052 348.138C619.613 381.038 644.745 401.718 675.954 418.838C684.02 423.262 695.607 428.879 701.082 436.181C704.622 440.902 703.114 449.138 701.147 454.218C694.953 470.218 688.607 478.69 688.212 496.655C683.722 496.68 672.616 496.483 668.674 497.05C663.697 497.506 653.916 497.211 648.804 497.176L612.435 496.929Z"/><path fill="white" transform="matrix(0.444196 0 0 0.44401 -0.00012207 0)" d="M697.667 250.793C703.707 250.547 707.465 250.653 712.818 253.948C727.153 262.773 739.428 284.067 743.128 300.06C745.174 308.905 749.71 328.148 744.489 336.014C741.825 340.029 739.488 340.553 735.13 341.625C731.725 340.817 727.897 339.789 726.007 336.514C722.924 331.175 720.832 325.055 718.396 319.359C714.254 309.673 708.508 301.085 702.236 292.658C695.745 283.6 682.239 272.836 686.873 260.407C688.768 255.323 692.967 252.792 697.667 250.793Z"/><path fill="#004CC5" transform="matrix(0.444196 0 0 0.44401 -0.00012207 0)" d="M628.473 534.371C627.062 532.716 625.54 531.626 625.525 529.889C630.799 528.718 690.738 528.854 693.787 530.081C693.661 532.126 692.997 532.436 691.714 534.353C695.288 534.286 698.571 534.677 702.114 535.028C702.625 551.613 701.515 568.392 683.417 574.916C675.519 587.753 664.079 588.486 649.813 585.882C643.715 584.769 639.676 580.405 636.637 575.189C618.057 567.198 615.848 552.962 616.83 534.539C620.505 534.231 624.745 534.356 628.473 534.371Z"/><path fill="#FD9102" transform="matrix(0.444196 0 0 0.44401 -0.00012207 0)" d="M628.473 534.371C627.062 532.716 625.54 531.626 625.525 529.889C630.799 528.718 690.738 528.854 693.787 530.081C693.661 532.126 692.997 532.436 691.714 534.353C687.533 536.044 685.381 538.332 684.168 542.814C674.412 554.036 665.165 552.834 651.109 552.222C642.655 551.854 639.05 546.921 634.271 540.833C633.013 537.69 631.12 536.254 628.473 534.371Z"/><path fill="white" transform="matrix(0.444196 0 0 0.44401 -0.00012207 0)" d="M634.271 540.833C639.05 546.921 642.655 551.854 651.109 552.222C665.165 552.834 674.412 554.036 684.168 542.814C683.194 551.291 676.815 556.99 668.309 557.69C653.48 558.908 636.314 559.806 634.271 540.833Z"/><path fill="#0171F5" transform="matrix(0.444196 0 0 0.44401 -0.00012207 0)" d="M612.139 503.62C625.961 503.108 640.141 503.36 654.013 503.341C671.628 503.164 689.245 503.269 706.857 503.657C715.858 509.842 715.89 517.753 706.743 523.778C677.941 524.447 643.757 523.8 614.512 523.57C604.69 523.492 601.498 510.49 612.139 503.62Z"/><path fill="#FBC609" transform="matrix(0.444196 0 0 0.44401 -0.00012207 0)" d="M658.053 135.824C669.852 136.101 666.893 144.923 667.452 153.912C667.837 160.104 667.442 166.999 666.971 173.149C666.802 175.359 663.913 176.89 662.162 178.051C661.615 178.026 661.069 177.991 660.524 177.945C653.166 177.315 652.073 170.859 652.743 164.567C653.816 154.483 648.75 142.003 658.053 135.824Z"/><path fill="#FBC609" transform="matrix(0.444196 0 0 0.44401 -0.00012207 0)" d="M556.946 168.744C565.874 168.345 569.331 177.794 573.341 184.583C577.224 191.155 581.133 197.821 573.737 202.883L573.295 202.918C571.273 203.062 568.112 203.206 566.913 201.642C563.48 197.167 559.772 191.196 557.233 186.249C553.001 178.004 549.159 175.535 556.946 168.744Z"/><path fill="#FBC609" transform="matrix(0.444196 0 0 0.44401 -0.00012207 0)" d="M759.122 168.084C773.767 169.793 764.481 183.576 760.341 190.894C757.819 195.353 755.384 200.078 750.979 202.825C731.126 200.842 753.81 170.216 759.122 168.084Z"/></svg>
