<?xml version="1.0" encoding="utf-8" ?><svg xmlns="http://www.w3.org/2000/svg" xmlns:xlink="http://www.w3.org/1999/xlink" width="597" height="341" viewBox="0 0 597 341"><path fill="#014DC5" transform="matrix(0.444196 0 0 0.44401 -0.000244141 0)" d="M303.716 113.845C312.031 113.287 320.874 114.029 329.184 114.761C364.524 117.874 395.033 126.868 426.216 143.687C484.233 174.637 527.442 227.538 546.193 290.576C564.626 352.037 559.496 418.164 531.804 476.044C522.925 494.628 515.224 503.771 506.526 519.802C512.479 538.883 559.38 634.176 557.369 642.389C557.189 643.123 557.296 643.007 556.659 643.382C554.87 644.434 551.406 643.355 549.577 642.787C540.616 640.003 531.749 635.503 523.008 632.01C502.573 623.842 482.19 615.544 461.86 607.117C449.685 602.099 434.945 595.614 422.603 591.49C417.105 593.58 408.772 597.663 403.1 600.211C378.917 610.394 354.403 617.245 328.106 618.991C264.186 623.407 201.187 601.855 153.358 559.211C101.803 513.566 70.6929 449.155 66.9868 380.388C57.8506 237.104 160.634 122.748 303.716 113.845ZM249.429 513.022C250.451 559.656 278.85 562.562 317.219 561.855C328.64 561.269 338.953 561.261 349.228 555.126C365.331 545.511 369.219 531.637 368.74 513.92C377.308 509.817 387.349 505.298 395.097 499.996C422.439 481.287 443.71 453.536 454.649 422.406C469.081 382.345 466.704 338.15 448.057 299.87C430.641 262.903 399.062 234.518 360.459 221.131C343.585 215.267 323.097 212.511 305.219 212.96C163.499 222.011 106.197 390.001 208.651 486.743C221.003 498.406 234.503 505.305 249.429 513.022Z"/><defs><linearGradient id="gradient_0" gradientUnits="userSpaceOnUse" x1="316.20813" y1="469.84286" x2="334.44177" y2="238.89703"><stop offset="0" stop-color="#FCAF07"/><stop offset="1" stop-color="#FDCE07"/></linearGradient></defs><path fill="url(#gradient_0)" transform="matrix(0.444196 0 0 0.44401 -0.000244141 0)" d="M253.195 257.445C273.026 241.642 298.342 234.408 323.526 237.348C348.364 240.183 371.021 252.878 386.411 272.583C418.582 313.344 417.174 372.371 383.685 411.591C366.504 431.712 353.001 444.993 349.277 472.621L332.926 472.796L267.889 472.492C264.127 445.662 250.572 435.634 234.717 415.83C194.785 365.951 203.091 296.554 253.195 257.445ZM375.778 339.733C378.9 338.534 381.958 337.165 383.135 333.785C386.899 322.982 383.005 304.958 378.681 294.762C372.423 280.006 359.532 259.294 341.338 261.339C325.42 269.424 332.664 281.728 341.84 292.059C352.479 304.038 359.434 316.91 364.952 331.814C367.012 337.326 370.092 338.97 375.778 339.733Z"/><path fill="#FD9202" transform="matrix(0.444196 0 0 0.44401 -0.000244141 0)" d="M253.195 257.445C254.285 260.486 252.665 263.333 251.588 266.33C237.895 304.433 261.617 356.576 290.17 382.225C305.174 395.704 324.58 403.168 340.442 415.128C342.959 417.017 346.47 422.686 346.418 426.188C343.153 443.369 335.401 454.838 332.926 472.796L267.889 472.492C264.127 445.662 250.572 435.634 234.717 415.83C194.785 365.951 203.091 296.554 253.195 257.445Z"/><path fill="#014DC5" transform="matrix(0.444196 0 0 0.44401 -0.000244141 0)" d="M279.738 503.767L279.909 501.296C283.049 499.137 301.393 500.494 306.088 500.472C310.311 500.452 336.811 499.575 338.462 500.864C338.258 502.518 337.643 502.865 336.412 504.145L345.035 504.422C345.997 512.398 345.492 519.261 341.065 526.251C336.834 532.863 330.134 537.507 322.46 539.147C318.962 539.895 316.249 539.673 312.786 539.931C295.73 541.199 277.272 537.119 272.948 517.939C272.367 515.364 271.592 507.826 273.088 505.548C274.872 504.061 277.385 504.046 279.738 503.767ZM329.983 512.97C322.355 520.296 313.791 520.461 303.81 519.719C296.052 519.141 291.93 516.499 287.209 510.681C289.052 526.732 303.758 525.062 316.101 524.383C322.154 524.05 329.37 519.46 329.983 512.97Z"/><path fill="#FD9202" transform="matrix(0.444196 0 0 0.44401 -0.000244141 0)" d="M279.738 503.767L279.909 501.296C283.049 499.137 301.393 500.494 306.088 500.472C310.311 500.452 336.811 499.575 338.462 500.864C338.258 502.518 337.643 502.865 336.412 504.145C333.494 505.971 330.27 509.381 329.983 512.97C322.355 520.296 313.791 520.461 303.81 519.719C296.052 519.141 291.93 516.499 287.209 510.681C285.891 506.402 284.048 504.687 279.738 503.767Z"/><path fill="#014DC5" transform="matrix(0.444196 0 0 0.44401 -0.000244141 0)" d="M274.839 477.527C293.729 477.175 313.129 478.303 332.09 477.621C335.805 477.487 349.622 476.801 351.851 479.566C357.938 487.116 355.248 495.569 344.039 495.504L295.503 495.534C287.453 495.541 279.387 495.715 271.347 495.431C266.388 495.312 262.867 492.9 262.414 487.686C261.614 478.479 267.614 477.786 274.839 477.527Z"/><path fill="#FDBE06" transform="matrix(0.444196 0 0 0.44401 -0.000244141 0)" d="M307.707 160.848C308.286 160.821 308.865 160.812 309.444 160.821C320.475 161.03 315.895 181.455 316.475 188.695C316.796 192.709 315.553 195.116 312.644 197.686C302.523 197.604 303.271 189.144 303.445 180.924C303.587 174.243 302.205 165.126 307.707 160.848Z"/><path fill="#FDBE06" transform="matrix(0.444196 0 0 0.44401 -0.000244141 0)" d="M395.019 189.502C410.331 190.075 399.1 205.983 395.316 212.365C393.652 215.171 392.466 217.258 389.991 219.401C371.588 219.237 389.446 194.588 395.019 189.502Z"/><path fill="#FDBE06" transform="matrix(0.444196 0 0 0.44401 -0.000244141 0)" d="M220.923 189.658C226.295 189.7 229.187 193.285 231.668 197.871C235.395 204.759 243.964 214.347 234.476 219.809C228.494 220.158 224.592 211.859 221.97 207.082C217.522 198.98 213.889 196.422 220.923 189.658Z"/><path fill="#014DC5" transform="matrix(0.444196 0 0 0.44401 -0.000244141 0)" d="M687.459 327.782C692.286 327.261 700.734 328.598 705.401 330.268C730.274 339.166 737.483 369.496 729.495 392.39C724.577 406.484 716.071 412.884 703.106 418.915C703.545 422.764 704.046 423.617 705.271 427.087C709.769 439.841 720.331 435.235 730.605 436.488C731.234 437.913 730.953 438.443 730.637 440.061C728.396 442.313 725.8 442.213 722.332 442.84C703.597 445.317 691.69 440.886 688.25 421.131C679.472 419.838 672.44 418.554 664.953 412.938C644.9 397.896 642.958 362.718 657.702 343.467C665.349 333.483 675.26 329.237 687.459 327.782ZM695.176 415.383C703.551 412.603 708.282 409.331 712.261 401.046C718.985 387.042 719.028 367.291 714.274 352.666C709.28 337.304 700.377 332.745 685.333 333.631C661.255 340.312 660.725 373.892 665.651 393.858C669.373 408.943 679.554 416.998 695.176 415.383Z"/><path fill="#FDBE06" transform="matrix(0.444196 0 0 0.44401 -0.000244141 0)" d="M1056.33 329.799C1062.08 329.697 1087.91 328.298 1090.47 332.098C1088.64 335.242 1082.39 335.742 1079.05 336.505C1080.42 347.414 1092.12 384.963 1095.74 396.738C1097.1 391.932 1102.16 377.235 1103.84 372.648C1106.52 365.335 1114.8 335.956 1117.92 331.168C1120.1 330.387 1120.43 330.496 1122.71 331.015C1126.24 333.863 1141.61 388.211 1146.55 398.058C1148.57 387.588 1163 345.801 1161.29 339.83C1159.79 334.559 1153.17 335.775 1149.35 333.641L1149.11 332.361C1149.78 330.951 1149.7 330.948 1150.99 330.162C1156.44 329.478 1173.76 329.853 1179.93 330.2C1181.18 330.27 1181.59 332.151 1182.07 333.439C1175.67 339.88 1174.56 329.54 1166.87 348.078C1159.37 366.168 1153.08 403.06 1144.88 418.78C1143.29 419.769 1142.11 419.417 1140.19 419.246C1137.37 417.309 1132.94 400.286 1131.59 396.144C1126.55 381.129 1121.65 366.07 1116.88 350.969C1114.57 358.077 1095.28 417.721 1093.36 419.08C1091.32 419.268 1090.18 419.535 1088.26 418.723C1085.68 413.12 1083.6 402.554 1081.56 396.153C1075.83 378.123 1071.05 355.649 1064.61 338.213C1060.79 335.639 1056.01 335.947 1054.2 331.676C1054.85 330.166 1054.49 330.68 1056.33 329.799Z"/><path fill="#014DC5" transform="matrix(0.444196 0 0 0.44401 -0.000244141 0)" d="M997.45 373.143C1005.48 367.5 1028.07 347.505 1028.64 338.178C1026.75 333.053 1024.36 336.393 1020.01 333.451C1019.37 331.361 1019.46 332.242 1020.06 329.842C1027.57 329.11 1043.38 329.504 1051.4 329.699C1053.03 330.955 1052.57 330.259 1053.06 332.377C1051.73 336.474 1045.39 334.456 1041.04 338.056C1030.16 347.048 1021.48 358.573 1011.38 368.815L1039.62 403.973C1046.27 412.136 1048.34 410.646 1057.17 414.75C1058.37 415.306 1058.36 416.282 1058.46 417.317C1056.17 419.68 1037.09 418.72 1032.71 418.689C1026.71 407.868 1007.05 382.245 997.44 374.386C997.396 383.925 995.633 400.526 998.502 409.09C1000.1 413.866 1004.77 413.386 1008.76 414.824L1009.14 416.149C1006.44 419.937 975.659 419.301 972.714 417.969L972.463 416.792C974.119 411.984 977.16 415.093 982.26 412.171C985.286 407.824 984.238 347.661 983.784 338.152C979.805 335.665 974.332 335.084 972.403 331.973L972.823 330.61L974.37 329.803C979.042 329.643 1006.22 329.256 1009.29 330.527L1009.28 331.613C1006.93 333.939 997.794 337.36 997.671 338.898C996.784 349.962 997.299 362.063 997.45 373.143Z"/><path fill="#014DC5" transform="matrix(0.444196 0 0 0.44401 -0.000244141 0)" d="M743.979 329.786C748.23 329.588 775.35 329.145 778.42 330.037C780.456 338.365 772.017 333.078 768.298 337.422C765.024 345.375 767.138 390.744 769.363 402.217C769.929 405.136 775.282 410.687 778.331 411.619C808.079 420.716 815.069 400.471 812.646 375.254C811.649 363.672 814.27 351.758 811.151 340.382C809.979 336.104 802.233 335.568 798.754 334.265C797.195 332.389 797.589 333.318 797.481 330.598C800.625 329.645 812.286 329.967 816.27 329.975C820.012 329.854 831.616 328.437 833.23 332.026L832.566 333.703C816.567 336.909 819.437 342.891 818.698 356.769C817.916 371.466 821.243 390.786 816.003 404.377C808.278 424.414 771.634 425.501 759.189 409.961C752.887 401.818 754.36 393.197 754.041 383.541C753.568 369.225 755.396 353.033 753.1 338.961C752.496 335.258 744.231 336.613 742.191 331.928C742.858 330.335 742.509 330.889 743.979 329.786Z"/><path fill="#014DC5" transform="matrix(0.444196 0 0 0.44401 -0.000244141 0)" d="M924.079 328.354C940.704 327.108 939.331 329.766 952.832 332.906C954.432 331.293 955.294 330.606 957.048 329.271C959.34 328.939 958.495 328.723 960.245 329.974C960.841 332.115 961.402 358.282 959.869 361.167C959.543 361.78 959.229 361.659 958.299 361.984C951.028 359.114 954.383 332.877 931.13 333.336C898.976 333.969 898.235 388.954 915.61 406.115C921.457 411.89 928.099 413.572 936.044 413.562C954.41 410.852 950.526 405.71 960.151 394.925C961.955 394.652 962.166 394.738 963.805 395.561C965.63 403.429 949.244 417.164 941.374 419.118C882.502 433.733 868.416 341.509 924.079 328.354Z"/><path fill="#FDBE06" transform="matrix(0.444196 0 0 0.44401 -0.000244141 0)" d="M1249.22 329.84L1305.55 329.62C1305.6 336.036 1305.66 342.464 1305.61 348.88C1305.6 351.123 1305.89 352.918 1303.73 353.833C1298.89 351.486 1297.92 342.272 1289.68 335.667C1284 334.711 1279.57 334.731 1273.8 334.709C1274 345.87 1272.29 404.106 1275.12 409.786C1277.21 413.994 1283.28 413.045 1287 414.597C1288.49 415.216 1288.52 416.061 1289.11 417.483C1288.67 417.89 1287.79 418.742 1287.21 418.756C1275.35 419.025 1259.48 418.982 1247.9 418.694L1247.36 417.583C1248.2 411.837 1260.82 415.231 1260.88 407.659C1260.94 400.548 1260.78 393.384 1260.78 386.256L1260.86 334.964C1254.96 334.899 1251.02 335.019 1245.15 335.533C1240.19 339.986 1234.75 354.073 1230.81 353.908C1228.84 350.862 1229.78 334.669 1229.86 330.098C1236.12 329.846 1242.91 329.903 1249.22 329.84Z"/><path fill="#014DC5" transform="matrix(0.444196 0 0 0.44401 -0.000244141 0)" d="M839.799 329.858C845.276 329.873 875.822 329.021 878.541 329.961L879.208 331.974C877.866 337.636 871.138 332.695 866.726 337.973C863.94 344.738 867.152 394.178 866.149 404.345C864.8 418.017 877.771 408.657 879.813 418.273C877.065 419.12 844.072 418.847 840.044 418.37L839.036 417.002C840.136 413.121 847.595 413.87 851.659 410.695C854.418 405.092 852.063 349.827 852.006 339.897C851.979 335.024 842.886 335.704 839.897 334.041C839.063 331.906 839.348 332.397 839.799 329.858Z"/><path fill="#FDBE06" transform="matrix(0.444196 0 0 0.44401 -0.000244141 0)" d="M1184.2 330.148C1195.45 329.622 1210.38 329.847 1221.84 330.265C1222.73 330.297 1222.85 330.883 1223.56 331.827L1223.15 333.314C1220.5 335.399 1215.66 335.674 1211.8 337.567C1209.3 340.911 1210.32 366.538 1210.19 372.753C1209.98 383.35 1209.96 395.697 1210.61 406.34C1211.13 414.931 1217.77 411.797 1222.86 414.882C1223.89 415.544 1223.77 417.465 1223.92 418.921C1216.52 418.932 1191.25 419.471 1184.69 418.467L1183.77 417.029C1185.38 412.976 1195 413.154 1196.03 411.071C1197.83 407.436 1197.07 387.706 1197.03 383.797C1196.87 368.557 1197.78 354.644 1196.63 339.704C1196.25 334.742 1188.38 336.492 1185.65 334.364C1184.16 333.251 1184.52 332.499 1184.2 330.148Z"/></svg>